<?xml version="1.0" standalone="no"?>
<!DOCTYPE svg PUBLIC "-//W3C//DTD SVG 20010904//EN"
 "http://www.w3.org/TR/2001/REC-SVG-20010904/DTD/svg10.dtd">
<svg version="1.0" xmlns="http://www.w3.org/2000/svg"
 width="1400.000000pt" height="1400.000000pt" viewBox="0 0 1400.000000 1400.000000"
 preserveAspectRatio="xMidYMid meet">
<metadata>
Created by potrace 1.14, written by Peter Selinger 2001-2017
</metadata>
<g transform="translate(0.000000,1400.000000) scale(0.100000,-0.100000)"
fill="#000000" stroke="none">
<path d="M6511 13730 c-6 -14 -42 -117 -81 -230 -40 -113 -100 -286 -135 -385
-91 -258 -137 -391 -190 -545 -67 -196 -75 -219 -87 -226 -9 -6 -130 74 -673
441 -99 67 -299 202 -445 300 -146 97 -272 184 -281 191 -8 8 -24 14 -33 14
-18 0 -19 -24 -1 -125 4 -26 36 -224 51 -320 2 -16 7 -41 9 -55 3 -14 7 -41 9
-60 3 -19 14 -93 26 -165 12 -71 24 -143 27 -160 4 -26 19 -114 38 -220 10
-55 15 -90 19 -120 2 -16 7 -42 11 -56 4 -15 2 -29 -3 -33 -5 -3 -47 24 -93
60 -246 193 -493 348 -817 514 -121 62 -146 58 -89 -12 59 -73 176 -253 260
-398 94 -165 256 -519 337 -740 68 -188 86 -230 98 -230 5 0 92 42 193 93 559
284 1159 482 1774 586 66 11 140 23 165 26 25 3 59 7 75 10 52 8 97 13 180 21
44 3 91 8 105 10 177 23 778 23 1025 -1 22 -2 72 -7 110 -10 39 -3 84 -8 100
-10 17 -3 82 -11 145 -20 63 -8 140 -20 170 -25 30 -5 69 -12 85 -14 82 -14
283 -58 394 -86 69 -17 128 -27 133 -22 7 7 26 126 52 330 47 360 190 892 298
1104 62 122 27 104 -241 -127 -103 -88 -383 -378 -485 -503 -106 -127 -125
-146 -123 -119 1 6 -2 57 -7 112 -10 129 -14 179 -21 295 -3 52 -8 118 -10
145 -4 49 -9 117 -20 280 -3 44 -7 103 -10 130 -2 28 -7 95 -11 150 -3 55 -8
116 -9 135 -2 19 -4 43 -4 53 -1 30 -26 19 -76 -35 -27 -29 -76 -82 -109 -118
-34 -36 -117 -126 -186 -200 -154 -166 -262 -282 -354 -380 -39 -42 -123 -131
-186 -200 -175 -190 -273 -290 -281 -290 -13 0 -59 67 -216 315 -80 127 -165
259 -188 295 -109 168 -386 605 -402 635 -11 19 -12 19 -22 -5z"/>
<path d="M7297 11584 c-1 -1 -66 -5 -144 -8 -77 -4 -152 -9 -165 -11 -12 -2
-60 -6 -106 -10 -45 -3 -93 -8 -105 -10 -12 -2 -48 -6 -81 -10 -32 -4 -68 -8
-80 -10 -11 -2 -38 -6 -58 -9 -96 -15 -121 -19 -243 -42 -227 -44 -469 -106
-695 -179 -152 -49 -412 -145 -424 -156 -6 -5 -15 -9 -22 -9 -24 0 -347 -149
-368 -169 l-20 -21 25 0 c44 0 181 -40 257 -75 137 -64 256 -163 355 -296 61
-84 150 -242 141 -252 -4 -3 -31 9 -60 28 -182 117 -420 189 -603 184 -295 -9
-535 -185 -631 -464 -53 -155 -69 -415 -35 -596 26 -139 70 -283 120 -393 48
-105 74 -166 71 -166 -2 0 -19 6 -38 14 -82 35 -236 173 -315 283 -82 113
-168 328 -197 489 -37 208 -8 478 78 712 8 24 11 42 5 42 -11 0 -53 -26 -84
-52 -11 -9 -65 -52 -121 -95 -189 -146 -338 -279 -523 -464 -415 -414 -725
-830 -1016 -1359 -36 -65 -65 -122 -65 -128 0 -16 29 -29 80 -37 25 -3 86 -12
135 -20 50 -8 110 -16 135 -20 25 -3 72 -11 105 -17 33 -6 77 -12 98 -13 21
-1 43 -7 48 -12 7 -7 -16 -41 -64 -99 -476 -576 -905 -1507 -1075 -2334 -38
-180 -52 -276 -53 -360 -2 -94 -1 -100 16 -100 9 0 231 66 495 146 430 130
512 151 496 125 -3 -4 -7 -18 -10 -32 -3 -13 -14 -60 -25 -104 -10 -44 -23
-105 -27 -135 -4 -30 -8 -57 -9 -60 -1 -3 -5 -41 -9 -85 -4 -44 -9 -89 -11
-101 -27 -180 -27 -1025 1 -1320 49 -521 164 -1069 285 -1349 4 -11 20 -49 35
-85 36 -89 108 -230 131 -259 23 -28 44 -24 88 16 17 16 53 46 80 68 28 21 52
42 55 45 3 3 19 16 35 29 120 91 423 392 654 646 194 214 554 680 721 935 24
36 51 75 61 88 17 22 18 23 28 4 28 -52 145 -559 165 -712 3 -19 9 -69 15
-110 28 -197 36 -338 36 -630 0 -225 -9 -452 -20 -521 -2 -13 -6 -55 -10 -94
-7 -82 -7 -79 -40 -310 -29 -203 -49 -320 -106 -613 -32 -165 -37 -206 -27
-222 14 -22 226 -129 383 -193 246 -101 619 -207 820 -233 22 -3 65 -10 95
-14 63 -11 1187 -7 1240 4 38 8 242 45 275 50 57 10 266 61 385 96 459 133
909 336 1274 577 85 56 132 81 139 74 5 -5 16 -34 24 -63 44 -171 148 -570
156 -606 16 -66 31 -68 117 -10 691 462 1238 1065 1579 1738 38 74 83 169 101
210 17 41 38 89 45 105 52 115 143 390 195 590 57 221 117 544 124 665 3 59
23 63 66 13 18 -21 88 -96 154 -168 67 -71 144 -154 171 -185 67 -74 87 -91
99 -87 5 2 22 41 37 88 33 101 77 246 84 274 2 11 20 81 40 155 39 152 100
437 110 520 4 30 8 57 10 60 2 3 6 33 10 65 3 33 8 69 10 80 2 11 7 58 11 105
3 47 8 87 9 90 6 10 18 317 18 451 0 131 -11 380 -17 417 -2 9 -7 53 -11 97
-15 182 -62 452 -116 670 -51 205 -152 527 -206 655 -8 19 -16 42 -18 50 -5
21 -87 217 -133 315 -71 155 -210 422 -297 570 -174 297 -404 645 -425 642
-14 -2 -20 -23 -34 -127 -4 -25 -10 -71 -15 -102 -4 -32 -11 -61 -15 -65 -13
-13 -420 419 -424 450 -2 16 9 32 40 57 75 62 98 91 98 124 -1 117 -123 349
-208 395 -33 17 -78 4 -188 -53 -86 -46 -119 -70 -173 -128 -19 -21 -41 -38
-48 -38 -8 0 -40 20 -71 44 -111 85 -283 183 -399 227 -39 15 -40 -16 -2 -60
19 -22 47 -54 62 -73 36 -43 170 -245 184 -278 31 -72 158 -207 283 -300 18
-14 38 -29 44 -35 6 -5 47 -39 91 -75 44 -35 85 -69 91 -75 6 -5 44 -39 85
-75 90 -78 289 -281 289 -293 0 -11 -5 -9 -116 32 -98 36 -247 68 -369 80 -94
9 -440 7 -510 -3 -22 -3 -58 -8 -80 -10 -105 -12 -270 -55 -352 -92 -28 -13
-61 -24 -71 -24 -12 0 -59 43 -123 113 -205 222 -416 436 -592 600 -120 112
-124 118 -131 207 -9 115 75 320 162 396 21 19 22 23 8 36 -38 39 -292 -55
-421 -155 -22 -17 -42 -34 -45 -38 -3 -3 -14 -11 -26 -17 -18 -9 -31 -4 -88
34 -75 50 -212 131 -266 156 -19 9 -69 32 -110 51 -121 56 -341 135 -402 145
-81 13 -141 6 -232 -24 -253 -83 -461 -194 -653 -346 -40 -32 -73 -64 -73 -71
0 -15 132 -94 275 -165 136 -68 286 -120 425 -148 19 -4 163 -8 320 -10 157
-1 317 -5 356 -8 125 -11 242 -53 310 -113 72 -63 200 -179 268 -243 221 -209
514 -516 502 -527 -2 -3 -53 9 -113 26 -59 17 -124 33 -143 36 -19 3 -42 8
-50 10 -8 2 -37 7 -65 11 -27 3 -52 8 -55 9 -3 2 -48 7 -100 12 -91 8 -354 8
-945 2 -241 -2 -362 2 -436 16 -153 29 -276 68 -380 120 -336 170 -574 460
-614 750 -18 130 -18 131 -85 140 -25 3 -56 8 -70 10 -14 2 -43 6 -65 10 -23
3 -50 7 -60 9 -11 2 -45 7 -75 12 -30 4 -58 9 -62 10 -5 1 -19 2 -33 3 -46 2
-27 34 83 142 118 116 205 188 329 272 86 57 270 151 361 183 33 11 52 24 52
34 0 8 -42 49 -92 90 -51 41 -106 88 -122 104 l-30 28 35 29 c57 49 208 152
314 216 333 201 717 344 1175 438 104 21 224 36 262 32 108 -12 609 -297 1061
-605 75 -51 145 -92 155 -90 31 6 117 205 138 318 4 25 8 47 9 50 1 3 5 28 10
55 16 102 22 125 34 125 14 0 212 -93 276 -129 209 -118 481 -291 630 -400 39
-28 81 -59 95 -68 28 -21 279 -222 296 -237 6 -6 40 -36 75 -66 35 -30 93 -83
128 -117 97 -94 100 -89 35 58 -171 386 -246 621 -284 889 -6 41 -13 82 -15
90 -15 50 -365 312 -565 425 -201 113 -483 236 -719 315 -154 51 -427 130
-451 130 -23 0 -35 -17 -22 -33 29 -37 106 -294 118 -397 3 -30 9 -73 13 -95
15 -81 -4 -85 -67 -12 -84 96 -312 316 -405 390 -108 87 -281 205 -356 242
-56 29 -58 29 -276 41 -116 6 -503 12 -508 8z m2168 -4057 c103 -72 196 -129
273 -169 30 -15 59 -31 65 -36 7 -5 71 -33 142 -62 72 -30 136 -58 143 -63 9
-7 12 -96 12 -382 0 -341 -2 -374 -17 -393 -50 -56 -681 -522 -708 -522 -1 0
-32 -17 -67 -39 -217 -132 -497 -254 -646 -281 -31 -5 -68 -12 -82 -15 -14 -3
-62 -6 -106 -7 -101 -2 -118 7 -162 93 -18 35 -37 71 -42 79 -11 17 -158 290
-233 430 -27 52 -53 100 -57 105 -4 6 -27 46 -50 90 -24 44 -79 145 -122 224
-44 79 -78 151 -76 159 7 35 533 401 668 465 8 4 31 17 50 28 36 22 318 165
380 192 91 41 283 107 385 133 17 4 35 8 40 10 15 4 99 22 110 23 6 0 51 -27
100 -62z m1657 -29 c21 -43 105 -292 111 -328 3 -14 10 -43 15 -65 63 -233 96
-619 71 -820 -13 -109 -19 -148 -24 -175 -3 -14 -7 -34 -9 -46 -26 -136 -128
-394 -156 -394 -5 0 -27 37 -50 83 -86 167 -197 315 -394 524 -90 95 -114 129
-122 169 -3 18 -6 187 -7 377 -1 253 2 349 11 359 6 8 49 38 95 66 106 64 219
143 327 226 47 36 92 64 100 63 8 -1 23 -19 32 -39z m-601 -1847 c60 -5 230
-283 304 -496 18 -53 32 -106 30 -117 -9 -43 -46 -185 -60 -223 -119 -342
-229 -534 -420 -734 -80 -84 -233 -211 -254 -211 -13 0 -12 -14 -16 150 -4
168 -12 244 -46 440 -36 209 -54 252 -91 217 -97 -92 -248 -192 -413 -272
-148 -72 -426 -169 -460 -161 -17 4 -66 86 -206 343 -101 186 -184 347 -184
358 0 17 12 22 85 37 282 58 588 222 1019 547 l154 115 143 1 c78 0 145 2 147
5 5 4 224 5 268 1z"/>
</g>
</svg>
